<svg version="1.1" id="Layer_1" xmlns="http://www.w3.org/2000/svg" xmlns:xlink="http://www.w3.org/1999/xlink" x="0px" y="0px"
	 width="2364px" height="4419.4px" viewBox="0 0 2364 4419.4" style="enable-background:new 0 0 2364 4419.4;" xml:space="preserve"
	>
<style type="text/css">
	.st0{fill:#91C2CA;}
</style>
<g>
	<path class="st0" d="M105,1036.5V902.6c1.2,0.1,2.5,0.1,3.7,0.1c43.2,0,78.3-35.1,78.3-78.3s-35.1-78.3-78.3-78.3
		c-1.2,0-2.5,0-3.7,0.1v-25.4l-51.7-51.7v-236c1.8,0.1,3.5,0.2,5.3,0.2c36.8,0,66.7-29.8,66.7-66.7c0-36.8-29.8-66.7-66.7-66.7
		S-8,329.8-8,366.7c0,33.9,25.3,61.9,58.1,66.1v237.7l51.7,51.7v24.3c-40,3.5-71.3,37.1-71.3,78s31.3,74.4,71.3,78v132.8L70,1066.9
		v330.6c-38.4,1.6-69.1,33.2-69.1,72c0,39.2,31.3,71.1,70.3,72.1v13.1l38.2,38.2v245.5L80.8,1867v90.1c-2.6,1.1-5.1,2.3-7.5,3.7
		v-98.4l31.7-31.7v-109.2h-3.2v107.9L70,1861.1v101.8c-16.7,11.2-27.7,30.2-27.7,51.8c0,26,15.9,48.2,38.5,57.5v134.9l-5.4,5.4
		v136.4l38.2,38.2v260c-5.4-1.3-11.1-2-16.9-2c-40.6,0-73.5,32.9-73.5,73.4c0,40.6,32.9,73.4,73.5,73.4c13.4,0,26-3.6,36.8-9.9v81.2
		l-46.6,46.6v336.4l14.7,14.7v11.1l-22.2-22.2v-330.6c0-0.9-0.7-1.6-1.6-1.6c-0.9,0-1.6,0.7-1.6,1.6v332l25.5,25.5v52.2
		c-5.5-1.4-11.3-2.2-17.2-2.2c-38.2,0-69.1,31-69.1,69.2c0,38.2,31,69.1,69.1,69.1c38.2,0,69.2-30.9,69.2-69.1
		c0-21.7-10-41-25.6-53.7l3.1,1.3v-41.9l-26.1-26.1v-15.8l-14.7-14.7v-333.5l46.6-46.6V2780c20-13.1,33.3-35.7,33.3-61.5
		c0-33.6-22.5-61.9-53.3-70.6v-262.2l-38.2-38.2v-133.7l5.4-5.4v-135c6.4,2.2,13.3,3.5,20.5,3.5c34.4,0,62.2-27.8,62.2-62.2
		s-27.9-62.2-62.2-62.2c-7.2,0-14.1,1.2-20.5,3.5v-87.5l28.2-28.2l-0.3-0.3l0.8,0.2v-248.6l-38.2-38.2v-11.8
		c39.2-0.7,70.7-32.7,70.7-72.1c0-37.4-28.5-68.1-64.9-71.8v-117.5l5.4-5.4v-199l26.5-26.5l-2.3-2.3l-27.5,27.5v199l-5.4,5.4v118.6
		c-1.3-0.1-2.5-0.1-3.8-0.1v-329.1L105,1036.5z M29.8,344.7c0-5.5,4.4-10,9.8-10.1c0.2-5.5,4.6-9.8,10.1-9.8c1.7,0,3.4,0.4,4.8,1.2
		c1.8-2.9,5-4.8,8.6-4.8s6.8,1.9,8.6,4.8c1.4-0.8,3-1.2,4.8-1.2c5.5,0,10,4.4,10.1,9.8c5.5,0.2,9.8,4.6,9.8,10.1
		c0,3.3-1.6,6.3-4.1,8.1c0.9,1.5,1.5,3.3,1.5,5.3c0,5.6-4.5,10.1-10.1,10.1h-3.1l-10.2,11.7c-0.9,1-1.7,1.4-3.1,1.4h-2.3
		c-1.1,0-1.5-0.8-1.2-1.7l3.7-11.4h-14c-5.7,0-10.2-4.5-10.2-10.1c0-1.5,0.3-2.9,0.9-4.2c-1.3,0.6-2.8,1-4.3,1
		C34.3,354.8,29.8,350.3,29.8,344.7z M35.3,406.4v-49.9c1.2,0.5,2.5,0.8,3.9,0.8v41.9h33v-17.4c0.1-0.1,0.1-0.1,0.2-0.2l3.7-4.2v29
		c0,2.3-1.3,3.7-3.7,3.7H39C36.7,410.1,35.3,408.8,35.3,406.4z M100,882H95c-1.4,0-2.6-1.1-2.6-2.6v-22.5
		c-5.2-5.2-9.8-12.6-13.4-24.1l-11.1-34.4c-0.4-1.1,0-1.9,1-2.2c4-1.3,8.6,0.9,10.6,6.2l6.2,15.8c1,2.8,5.3,2.2,5.3-0.8
		c0-15.9,0-26.1,0-41.8c0-2.6,2.1-4.7,4.8-4.7c2.6,0,4.7,2.1,4.7,4.7v31.8c0,1.7,3.1,1.7,3.2,0v-37.5c0-2.6,2.1-4.7,4.8-4.7
		c2.6,0,4.7,2.1,4.7,4.7v37.5c0,1.7,3.2,1.7,3.2,0v-30.6c0-2.6,2.1-4.7,4.7-4.7c2.6,0,4.7,2.1,4.7,4.7v30.6c0,1.7,3.2,1.7,3.2,0
		v-18.6c0-2.6,2.1-4.7,4.7-4.7c2.6,0,4.7,2.1,4.7,4.7v43.9c0.1,10.3-3.6,18.5-9.4,24.4v22.3c0,1.4-1.1,2.6-2.5,2.6h-5.1v-27.5
		l7.5-8.2v-9.9c2.6-0.7,4.5-3.1,4.5-5.8c0-3.3-2.7-6-6-6c-3.3,0-6,2.7-6,6c0,2.7,1.8,5.1,4.5,5.8v8.7l-7.5,8.2V882h-6.1V846
		c1.7-0.6,2.9-2.3,2.9-4.2c0-1.9-1.2-3.6-2.9-4.2v-10.8c2.6-0.7,4.5-3.1,4.5-5.8c0-3.3-2.7-6-6-6c-3.3,0-6,2.7-6,6
		c0,2.7,1.8,5.1,4.5,5.8v10.8c-1.7,0.6-2.9,2.3-2.9,4.2c0,1.9,1.2,3.6,2.9,4.2V882h-6.2v-28.7l-7.5-8.2v-8.7
		c2.6-0.7,4.5-3.1,4.5-5.8c0-3.3-2.7-6-6-6c-3.3,0-6,2.7-6,6c0,2.7,1.8,5.1,4.5,5.8v9.9l7.5,8.2V882z M127.4,833.5
		c-1.6,0-2.9-1.3-2.9-2.9c0-1.6,1.3-3,2.9-3c1.6,0,2.9,1.3,2.9,3C130.4,832.2,129.1,833.5,127.4,833.5z M110.7,824
		c-1.6,0-2.9-1.3-2.9-2.9c0-1.6,1.3-3,2.9-3c1.6,0,2.9,1.3,2.9,3C113.7,822.6,112.4,824,110.7,824z M94.1,833.5
		c-1.6,0-2.9-1.3-2.9-2.9c0-1.7,1.3-3,2.9-3c1.6,0,2.9,1.3,2.9,3C97,832.2,95.7,833.5,94.1,833.5z M130.8,3376c0,1.7,0,3.4,0,5.1
		c0.1,7.3,0.2,14.9-1.8,22.2c-2,7.5-5.9,13.4-11.5,17.8c-0.9,0.7-1.2,1.3-1.2,2.6c0,2.8,0,5.5,0,8.3c0,2.6,0,5.2,0,7.8
		c0,0.8-0.1,1.9-0.9,2.7c-0.6,0.6-1.5,0.9-2.7,0.9c0,0,0,0,0,0c-7.7,0-15.5,0-23.2,0c-9.4,0-18.7,0-28.1,0c-1.1,0-2.5-0.6-3.3-1.3
		c-3.2-3-6.3-6-9.1-9c-0.8-0.9-1.2-2.3-1.2-3.3c-0.1-9.5-0.1-18.9-0.1-28.4v-44c0-3.5,0.6-4.1,4.1-4.1h60.4c3.4,0,4.2,0.7,4.2,4.1
		l0,3.2c0,3,0,6.1-0.1,9.2c0,1.4,0.4,1.7,1.4,1.9l2.7,0.5c2.6,0.5,5.1,0.9,7.6,1.3C130.4,3373.6,130.8,3374.9,130.8,3376z
		 M127.8,3302.8v39.2c-6.7-5.4-14.4-9.6-22.8-12.2v-49.8L127.8,3302.8z M109.7,2673.7c0-1.6,1.3-2.8,2.8-2.8c1.6,0,2.9,1.3,2.9,2.8
		v10.7h-5.7V2673.7z M93.8,2673.7c0-1.6,1.3-2.8,2.8-2.8c1.6,0,2.8,1.3,2.8,2.8v10.7h-5.7V2673.7z M77.9,2673.7
		c0-1.6,1.3-2.8,2.8-2.8c1.6,0,2.8,1.3,2.8,2.8v10.7h-5.7V2673.7z M62.7,2737.3H51.9c-1.6,0-2.8-1.3-2.8-2.8c0-1.6,1.3-2.8,2.8-2.8
		h10.8V2737.3z M62.7,2721.4H51.9c-1.6,0-2.8-1.3-2.8-2.8c0-1.6,1.3-2.9,2.8-2.9h10.8V2721.4z M62.7,2705.4H51.9
		c-1.6,0-2.8-1.3-2.8-2.8c0-1.6,1.3-2.8,2.8-2.8h10.8V2705.4z M83.6,2763.3c0,1.6-1.3,2.9-2.8,2.9c-1.6,0-2.8-1.3-2.8-2.9v-10.8h5.7
		V2763.3z M99.5,2763.3c0,1.6-1.3,2.9-2.8,2.9c-1.6,0-2.8-1.3-2.8-2.9v-10.8h5.7V2763.3z M115.4,2763.3c0,1.6-1.3,2.9-2.9,2.9
		c-1.6,0-2.8-1.3-2.8-2.9v-10.8h5.7V2763.3z M141.4,2737.3h-4.6v-5.7h4.6c1.6,0,2.9,1.3,2.9,2.8C144.3,2736,143,2737.3,141.4,2737.3
		z M130.7,2699.7h10.8c1.6,0,2.9,1.3,2.9,2.8c0,1.6-1.3,2.8-2.9,2.8h-10.8V2699.7z M130.7,2715.7h10.8c1.6,0,2.9,1.3,2.9,2.9
		c0,1.6-1.3,2.8-2.9,2.8h-10.8V2715.7z M130.7,2731.6h2.8v5.7h-2.8V2731.6z M127.8,2694.4v48.1c0,4.5-2.6,7.1-7.1,7.1H72.6
		c-4.5,0-7.1-2.6-7.1-7.1v-48.1c0-4.4,2.6-7.1,7.1-7.1h48.1C125.2,2687.3,127.8,2690,127.8,2694.4z M85.1,2048.7h-6.2
		c-0.8,0-1.4-0.7-1.4-1.5c0-0.8,0.6-1.5,1.4-1.5h6.2c0.8,0,1.4,0.7,1.4,1.5C86.5,2048,85.9,2048.7,85.1,2048.7z M119.5,2048.7h-12
		v1.5h6.7c0.8,0,1.5,0.7,1.5,1.5c0,0.8-0.7,1.5-1.5,1.5H95.5c-0.8,0-1.5-0.7-1.5-1.5c0-0.8,0.7-1.5,1.5-1.5h5.9v-1.5H89.5
		c-0.8,0-1.5-0.7-1.5-1.5c0-0.8,0.7-1.5,1.5-1.5h30c0.8,0,1.5,0.7,1.5,1.5C121,2048,120.3,2048.7,119.5,2048.7z M130.1,2048.7h-6.2
		c-0.8,0-1.4-0.7-1.4-1.5c0-0.8,0.6-1.5,1.4-1.5h6.2c0.8,0,1.4,0.7,1.4,1.5C131.5,2048,130.9,2048.7,130.1,2048.7z M130,2039.1
		v-21.4c0-2.5,3.5-3.6,11.2-3.6c7.8,0,11.3,1.1,11.3,3.6v21.4c0,0.2,0,0.4-0.1,0.6h2.1c0.9,0,1.7,0.7,1.7,1.5c0,0.8-0.8,1.5-1.7,1.5
		H54.5c-0.9,0-1.7-0.7-1.7-1.5c0-0.8,0.8-1.5,1.7-1.5h2.1c0-0.2-0.1-0.3-0.1-0.5v0v-21.4c0-2.5,3.5-3.6,11.2-3.6
		c7.8,0,11.3,1.1,11.3,3.6v21.4c0,0.2,0,0.4-0.1,0.6h51.2C130,2039.5,130,2039.4,130,2039.1L130,2039.1z M104.5,1971.9
		c12.9,0,23.5,10.2,23.5,22.7c0,4.7-1.9,8.4-3.8,11.8l0,0c0,0-0.4,0.7-17.3,30.3c-0.5,0.8-1.4,1.4-2.4,1.4c-1,0-1.9-0.5-2.4-1.4
		l-17.7-31.1c-2-3.5-3.4-6.8-3.4-11C81.1,1982.1,91.6,1971.9,104.5,1971.9z M45.2,1499c1.4,0.3,2.8,0.5,4.3,0.5c5,0,9.6-2,12.9-5.4
		l-2-2c-2.8,2.8-6.7,4.5-11,4.5c-8.6,0-15.5-7-15.5-15.5c0-4,1.5-7.6,4-10.4h5.5c0.6,2.4,2.8,4.1,5.3,4.1c3,0,5.5-2.5,5.5-5.5
		c0-3-2.5-5.5-5.5-5.5c-2.5,0-4.7,1.7-5.3,4.1H38c-2.5-2.7-4-6.4-4-10.4c0-6.1,3.5-11.4,8.7-13.9c0.7,3.7,2.5,6.9,5,9.5
		c3.3,3.3,7.9,5.4,12.9,5.4v-2.8c-8.6,0-15.5-6.9-15.5-15.5c0-8.6,6.9-15.5,15.5-15.5c4.3,0,8.2,1.8,11,4.6v9.5h-7.4
		c-0.6-2.4-2.8-4.1-5.3-4.1c-3,0-5.5,2.5-5.5,5.5c0,3,2.5,5.5,5.5,5.5c2.5,0,4.7-1.7,5.3-4.1h7.4v38.3h-4.2
		c-0.6-2.4-2.8-4.1-5.3-4.1c-3,0-5.5,2.5-5.5,5.5c0,3,2.5,5.5,5.5,5.5c2.5,0,4.7-1.7,5.3-4.1h4.2v26.7c-2.8,2.8-6.7,4.6-11,4.6
		C52.2,1514.1,45.4,1507.4,45.2,1499z M46.1,1469.5c0-1.5,1.2-2.7,2.7-2.7c1.5,0,2.7,1.2,2.7,2.7c0,1.5-1.2,2.7-2.7,2.7
		C47.3,1472.2,46.1,1471,46.1,1469.5z M61.7,1440.3c0,1.5-1.2,2.7-2.7,2.7c-1.5,0-2.7-1.2-2.7-2.7c0-1.5,1.2-2.7,2.7-2.7
		S61.7,1438.8,61.7,1440.3z M64.8,1481.4c0,1.5-1.2,2.7-2.7,2.7c-1.5,0-2.7-1.2-2.7-2.7c0-1.5,1.2-2.7,2.7-2.7
		C63.6,1478.7,64.8,1479.9,64.8,1481.4z M74.5,1500h7.4c0.6,2.4,2.8,4.1,5.3,4.1c3,0,5.5-2.5,5.5-5.5c0-3-2.5-5.5-5.5-5.5
		c-2.5,0-4.7,1.7-5.3,4.1h-7.4v-38.3h4.2c0.6,2.4,2.8,4.1,5.3,4.1c3,0,5.5-2.5,5.5-5.5c0-3-2.5-5.5-5.5-5.5c-2.5,0-4.7,1.7-5.3,4.1
		h-4.2v-26.7c2.8-2.8,6.7-4.6,11-4.6c8.4,0,15.3,6.7,15.5,15.1c-1.4-0.3-2.8-0.5-4.3-0.5c-5,0-9.6,2-12.9,5.4l2,2
		c2.8-2.8,6.7-4.5,11-4.5c8.6,0,15.5,7,15.5,15.5c0,4-1.5,7.6-4,10.4h-5.5c-0.6-2.4-2.8-4.1-5.3-4.1c-3,0-5.5,2.5-5.5,5.5
		c0,3,2.5,5.5,5.5,5.5c2.5,0,4.7-1.7,5.3-4.1h5.5c2.5,2.7,4,6.4,4,10.4c0,6.1-3.5,11.4-8.7,13.9c-0.7-3.7-2.5-7-5-9.5
		c-3.3-3.3-7.9-5.4-12.9-5.4v2.8c8.6,0,15.5,7,15.5,15.5c0,8.6-6.9,15.5-15.5,15.5c-4.3,0-8.2-1.7-11-4.6V1500z M84.4,1498.6
		c0-1.5,1.2-2.7,2.7-2.7c1.5,0,2.7,1.2,2.7,2.7c0,1.5-1.2,2.7-2.7,2.7C85.6,1501.3,84.4,1500.1,84.4,1498.6z M81.3,1457.5
		c0-1.5,1.2-2.7,2.7-2.7c1.5,0,2.7,1.2,2.7,2.7c0,1.5-1.2,2.7-2.7,2.7C82.5,1460.2,81.3,1459,81.3,1457.5z M100,1469.5
		c0,1.5-1.2,2.7-2.7,2.7c-1.5,0-2.7-1.2-2.7-2.7c0-1.5,1.2-2.7,2.7-2.7C98.8,1466.7,100,1468,100,1469.5z"/>
	<path class="st0" d="M60,343c1.4,0,2.6-1.1,2.6-2.6c0-1.4-1.1-2.6-2.6-2.6c-1.4,0-2.6,1.1-2.6,2.6C57.5,341.8,58.6,343,60,343z"/>
	<path class="st0" d="M79.4,351.8l-1.8-1.8c-2.6,2.6-6.2,4.2-10.1,4.2c-3.9,0-7.5-1.6-10.1-4.2l-1.8,1.8c3.1,3.1,7.3,4.9,11.9,4.9
		C72.2,356.7,76.4,354.8,79.4,351.8z"/>
	<path class="st0" d="M75,343c1.4,0,2.6-1.1,2.6-2.6c0-1.4-1.2-2.6-2.6-2.6s-2.6,1.1-2.6,2.6C72.4,341.8,73.5,343,75,343z"/>
	<path class="st0" d="M87.6,2730.3h18.1c1.7,0,2.7-1,2.7-2.7v-18.1c0-1.7-1-2.7-2.7-2.7H87.6c-1.7,0-2.7,1-2.7,2.7v18.1
		C84.9,2729.3,85.9,2730.3,87.6,2730.3z"/>
	<path class="st0" d="M111.3,3425.2c0,0,0-0.1,0-0.1c-0.1,0-0.1,0-0.2,0.1c-0.7,0.3-1.3,0.6-1.9,0.9c-4,2.7-7.8,1.5-10.5,0.1
		c-11.1-5.4-17.7-13.5-20.1-24.8c-1.5-7.1-1.5-14.3-1.4-21.6l0-1.5c0.1-4.3,0.2-4.9,4.3-5.3c0.6,0,1.2-0.1,2-0.2
		c6.5-0.8,12.3-3.1,17.3-6.9c3.1-2.4,3.6-2.4,6.8,0.1c1,0.8,2.1,1.4,3.3,2.2c0.2,0.1,0.3,0.2,0.5,0.3c0-0.6,0-1.2,0-1.7
		c0-2.4,0-4.7,0.1-6.9c0-0.9-0.1-1.3-0.2-1.4c-0.2-0.2-0.8-0.3-1.5-0.3c-14.3,0.1-28.5,0.1-42.8,0l-14,0l0,62.3c0,2.2,0,4.3,0,6.5
		c0,0.7,0.1,0.9,0.1,1c0.1,0.1,0.4,0.1,0.9,0.1c1.2,0,2.3,0,3.5,0c0.8,0,1.7,0,2.5,0c0.1,0,0.1,0,0.1,0c1,0,1.7,0.3,2.3,0.8
		c0.5,0.5,0.8,1.3,0.8,2.4c0,0.7,0,1.5,0,2.2c0,1.3,0,2.5,0,3.8c0,0.6,0.1,0.8,0.1,0.8c0,0,0.2,0.1,0.8,0.1c0,0,0,0,0,0
		c15.5,0,30.9,0,46.4,0c0,0,0,0,0,0c0.6,0,0.8-0.1,0.8-0.1c0,0,0.1-0.1,0.1-0.7c-0.1-2.5,0-5,0-7.4
		C111.3,3428.4,111.3,3426.8,111.3,3425.2z M79.9,3407.6c0,0.8-0.2,1.4-0.6,1.9c-0.7,0.7-1.8,0.7-2.6,0.7c-3.3,0-6.5,0-9.8,0
		c-2.9,0-5.8,0-8.7,0c-0.8,0-1.9,0-2.6-0.8c-0.4-0.4-0.6-1.1-0.6-1.8c0.1-2.4,2.2-2.4,3.3-2.4l11.8,0c2.2,0,4.4,0,6.5,0
		C77.8,3405.2,79.9,3405.2,79.9,3407.6z M55.6,3367.1c0.7-0.7,1.6-0.8,2.5-0.8c0,0,0,0,0,0h9.4h2.6c2.2,0,4.4,0,6.7,0
		c0.8,0,2,0.1,2.7,0.9c0.3,0.3,0.6,0.9,0.4,1.9c-0.2,1.2-2,2.2-3.1,2.2c-3.4,0.1-6.9,0.1-10.3,0.1c-1.5,0-3.1,0-4.6,0l-3.9,0
		c-0.8,0-3.1,0-3.2-2.4C54.9,3368.1,55.1,3367.5,55.6,3367.1z M75.3,3379.5c-0.5,0.6-1.4,1-2.5,1c0,0,0,0,0,0l-5.3,0
		c-1.6,0-3.3,0-4.9,0c-1.5,0-3.1,0-4.6,0c-0.9,0-1.8-0.1-2.5-0.8c-0.4-0.4-0.6-1-0.6-1.8c0-1.7,1.1-2.5,3.1-2.5l5.3,0l3,0
		c0.4,0,0.7,0,1.1,0c1.8,0,3.6-0.1,5.4,0.1c1,0.1,2.6,1,2.8,2.1C75.9,3378.6,75.6,3379.2,75.3,3379.5z M55.3,3387.2
		c0.2-0.1,0.3-0.3,0.5-0.5c0.5-0.5,1.1-1.2,2-1.2c1.9-0.1,3.8-0.1,5.6-0.1c0.4,0,0.9,0,1.3,0l0.8,0l2.1,0c1.7,0,3.5,0,5.2,0
		c1.2,0,2,0.3,2.5,0.9c0.3,0.3,0.6,0.9,0.4,1.8c-0.2,1.1-1.8,2.2-2.9,2.2c-2.4,0-4.9,0.1-7.3,0.1c-2.6,0-5.2,0-7.8-0.1
		c-0.8,0-1.4-0.6-2-1.2c-0.2-0.2-0.4-0.4-0.5-0.5l-0.9-0.7L55.3,3387.2z M55.3,3397.5c0.2-0.1,0.4-0.3,0.5-0.5
		c0.5-0.5,1.2-1.2,2-1.2c5-0.1,10-0.1,15.1,0c1.1,0,2.6,1.1,2.9,2.2c0.2,0.9-0.1,1.5-0.4,1.8c-0.5,0.6-1.3,0.9-2.5,0.9c0,0,0,0,0,0
		l-6.5,0l-0.9,0c-0.7,0-1.4,0-2.1,0c-0.7,0-1.4,0-2.1,0c-1.2,0-2.4,0-3.5-0.1c-0.8-0.1-1.4-0.7-1.9-1.2c-0.2-0.2-0.3-0.4-0.5-0.5
		l-0.9-0.7L55.3,3397.5z M58,3414.7l10.8,0l4,0c2.8,0,5.7,0,8.5,0.1c1,0,2.7,0.7,3.1,1.8c0.4,1.1,0.1,1.8-0.2,2.2
		c-0.5,0.7-1.4,1-2.7,1c-4.2,0-8.4,0-12.7,0h-2.5c-0.8,0-1.6,0-2.4,0c-2,0-3.9,0-5.9,0c-0.8,0-1.8-0.1-2.4-0.8
		c-0.4-0.4-0.6-1-0.6-1.8C54.9,3415.5,56,3414.7,58,3414.7z M91.6,3427.3c-0.7,0.7-1.6,0.8-2.6,0.8c-4,0-8.1,0-12.1,0l-3.3,0l-4.1,0
		c-3.8,0-7.5,0-11.3,0c0,0-0.1,0-0.1,0c-1,0-3.1-0.1-3.1-2.5c0-0.8,0.2-1.4,0.7-1.9c0.7-0.7,1.7-0.8,2.5-0.8h7.7
		c7.7,0,15.4,0,23.1,0c0.8,0,3.2,0,3.3,2.6C92.3,3426.2,92,3426.8,91.6,3427.3z"/>
	<path class="st0" d="M104,3369.9c-6,4.7-13,7.4-21.2,8.2c-0.6,0.1-0.7,0.1-0.6,1c0.1,1.8,0.1,3.5,0.1,5.3c0.1,3.7,0.1,7.4,0.4,11.1
		c1.2,12.4,7.5,21.2,18.7,26.3c1.7,0.8,3,0.8,4.8,0c10-4.3,15.9-11.3,18.2-21.5c1.4-6,1.3-12.2,1.2-18.2c0-1.2,0-2.4,0-3.5
		c0-0.1-0.4-0.4-0.6-0.4c-0.9-0.2-1.7-0.3-2.6-0.4c-0.8-0.1-1.6-0.2-2.4-0.4C114.1,3376.1,108.8,3373.7,104,3369.9z M118,3387.7
		c0,0.8,0.1,1.6-0.5,2.2c-3.8,4-7.7,7.8-11.6,11.7l-2.9,2.9c-0.7,0.7-1.4,1-2.1,1c0,0,0,0,0,0c-0.8,0-1.5-0.4-2.2-1l-2.1-2.1
		c-1.9-1.9-4-3.9-5.9-6c-0.7-0.8-1.1-2.7-0.4-3.6c0.5-0.8,1.2-1,1.6-1c0.8,0,1.7,0.4,2.4,1.1c1.6,1.7,3.1,3.3,4.8,5l1.6,1.7
		l10.7-10.8c0.2-0.2,0.4-0.5,0.7-0.7c0.6-0.7,1.2-1.4,2-1.9c0.7-0.4,1.5-0.4,2.2-0.3c0.3,0,0.5,0,0.7,0l1-0.1l-0.1,1.1
		C118,3387.2,118,3387.4,118,3387.7z"/>
	<path class="st0" d="M59.5,2027.7v4c0.5,0.3,2.5,1,8.2,1c5.8,0,7.7-0.7,8.3-1v-4c-1.8,0.5-4.6,0.8-8.3,0.8
		C64.1,2028.5,61.4,2028.2,59.5,2027.7z"/>
	<path class="st0" d="M59.5,2034.8v4c0.5,0.3,2.5,0.9,8.2,0.9c5.8,0,7.7-0.7,8.3-0.9v-4c-1.8,0.5-4.6,0.8-8.3,0.8
		C64.1,2035.6,61.4,2035.3,59.5,2034.8z"/>
	<path class="st0" d="M104.5,2029.9c4.7-8.2,14.7-25.8,14.9-26.1c2-3.4,3.1-6,3.1-9c0-9.5-8.1-17.2-17.9-17.2
		c-9.9,0-17.9,7.7-17.9,17.2c0,3,1,5.4,2.6,8.3L104.5,2029.9z M104.5,1984.4c5.3,0,9.7,4.3,9.7,9.7s-4.3,9.7-9.7,9.7
		s-9.7-4.3-9.7-9.7S99.2,1984.4,104.5,1984.4z"/>
	<path class="st0" d="M104.5,1998.2c2.3,0,4.1-1.9,4.1-4.1s-1.9-4.1-4.1-4.1c-2.3,0-4.1,1.8-4.1,4.1S102.2,1998.2,104.5,1998.2z"/>
	<path class="st0" d="M74.8,2017.8c-1.2-0.3-3.3-0.6-7-0.6c-3.7,0-5.8,0.3-7,0.6c1.2,0.2,3.3,0.5,7,0.5
		C71.5,2018.3,73.6,2018,74.8,2017.8z"/>
	<path class="st0" d="M59.5,2020.5v4c0.5,0.3,2.5,0.9,8.2,0.9c5.8,0,7.7-0.7,8.3-0.9v-4c-1.8,0.5-4.6,0.8-8.3,0.8
		C64.1,2021.3,61.4,2021,59.5,2020.5z"/>
	<path class="st0" d="M148.3,2017.8c-1.2-0.3-3.3-0.6-7-0.6c-3.7,0-5.8,0.3-7,0.6c1.2,0.2,3.3,0.5,7,0.5
		C145,2018.3,147.1,2018,148.3,2017.8z"/>
	<path class="st0" d="M149.5,2024.5v-4c-1.8,0.5-4.6,0.8-8.3,0.8c-3.7,0-6.4-0.3-8.2-0.8v4c0.5,0.3,2.5,0.9,8.2,0.9
		C147.1,2025.4,149,2024.8,149.5,2024.5z"/>
	<path class="st0" d="M149.5,2038.8v-4c-1.8,0.5-4.6,0.8-8.3,0.8c-3.7,0-6.4-0.3-8.2-0.8v4c0.5,0.3,2.5,0.9,8.2,0.9
		C147.1,2039.7,149,2039.1,149.5,2038.8z"/>
	<path class="st0" d="M149.5,2031.6v-4c-1.8,0.5-4.6,0.8-8.3,0.8c-3.7,0-6.4-0.3-8.2-0.8v4c0.5,0.3,2.5,1,8.2,1
		C147.1,2032.6,149,2031.9,149.5,2031.6z"/>
	<path class="st0" d="M2313.3,500c-39.8,0-72.1,32.3-72.1,72.1c0,39.8,32.3,72.1,72.1,72.1c4.1,0,8.1-0.4,12-1v117.1l-46.8,46.8
		v274.7c-9.5-6.3-20.9-10-33.2-10c-33.1,0-60,26.8-60,60c0,33.1,26.8,59.9,60,59.9c19.6,0,37-9.4,48-24v67.5l-73.3,73.3v236.8h3.4
		v-235.4l73.3-73.3v-73.9c5.5-9,8.6-19.6,8.6-31c0-19.4-9.2-36.6-23.4-47.5V808.5l46.7-46.8V642.5c32.4-7.1,56.7-35.9,56.7-70.4
		C2385.4,532.3,2353.1,500,2313.3,500z M2267.7,1154.9c-5.2,6.7-12.6,12.2-21.4,16c-0.3,0.1-0.6,0.2-0.9,0.2c-0.3,0-0.6-0.1-0.9-0.2
		c-8.8-3.8-16.2-9.3-21.4-16c-5.4-7-8.3-15-8.3-23.2c0-4.1,0-8.2,0-12.2c0-4,0.1-8.1,0.1-12.2c0-1,0.6-1.8,1.5-2.2
		c0.9-0.3,2-0.1,2.6,0.7c2.2,2.5,6.7,4.2,11.7,4.2c6.6,0,11.3-2.7,12.5-5.5c0.4-0.9,1.2-1.4,2.1-1.4s1.8,0.5,2.1,1.4
		c1.2,2.7,5.9,5.5,12.5,5.5c4.9,0,9.5-1.7,11.7-4.2c0.6-0.7,1.7-1,2.6-0.7c0.9,0.3,1.5,1.2,1.5,2.2c0,4.1,0,8.2,0,12.2
		c0,4,0,8.1,0,12.2C2276,1140,2273.1,1148,2267.7,1154.9z M2347.3,571.2l-6.5-7.1v-7.7l4.9-5.4
		C2347.9,557.7,2348,564.7,2347.3,571.2z M2313,599.8c-3.3-1.2-6.6,1.9-10.4,2.6c2.5,2.1,6.2,4.2,10.4,4.7v12.8
		c-7.4-0.5-13.6-4.9-18.9-11.6c-2.6-3.3-4.8-7.2-6.5-11.6c-7.7,1.2-15.9-22.1-5.5-21.9c-1.4-8.8-1.6-18.6,2.6-28
		c5.2-11.7,17.3-17.4,29.7-17.4c1.8,0,3.5,0.1,5.3,0.4v7.1l-6.7,7.3v32.3l6.7,7.4v5.4c-0.5,0.1-1.1,0.5-1.6,0.9c-2.2,2-4.5,2-6.6,0
		c-2-1.8-4.3-1.3-5.2,1.1c2.5,0,3.7,0.8,4.8,1.7c0.5,0.4,1.1,0.9,1.6,1.2c1.4,0.8,2.9,0.8,4.3,0c0.6-0.3,1.1-0.8,1.6-1.2
		c0.3-0.3,0.7-0.5,1.1-0.8v7.7c-1-0.3-2-0.3-3.1,0C2314.8,600.4,2314.8,600.4,2313,599.8z M2321.4,618.7c-1.8,0.6-3.6,1-5.5,1.2V608
		l6.7-7.3v-18.1l-6.7-7.3v-30.1l6.7-7.4v-7.6c1.9,0.4,3.8,1,5.5,1.6v0.3v8.3l-6.7,7.3v24.8l6.7,7.4v23.3l-6.7,7.4V618.7z
		 M2334.8,608.2c-3.2,4.1-6.7,7.3-10.6,9.3v-5.7l6.7-7.3v-25.5l-6.7-7.3v-22.7l6.7-7.4v-8.4c2,1,3.8,2.2,5.5,3.6v7.6l-6.7,7.3v17.4
		l6.7,7.4v17l4.3,4.7C2339.1,601.8,2337.1,605.2,2334.8,608.2z M2343.1,596.4l-3.9-4.2l0-17.1l-6.7-7.3v-15.2l6.7-7.4v-6
		c2,2.1,3.7,4.6,4.9,7.5c0.2,0.4,0.4,0.8,0.5,1.2l-6.6,7.3v9.9c4.5,5,9.1,10,13.6,14.9C2351.9,586,2347.7,595,2343.1,596.4z"/>
	<path class="st0" d="M2304.6,572.6c-1.7,0.9-3.4,1.6-5,1.8c-3.1,0.5-6.1-0.3-8.6-2.7c1.6,4.6,5.1,6.2,8.6,5.9
		c4.9-0.4,7.1-4.6,9.7-4.9C2307.7,571.8,2306.2,571.8,2304.6,572.6z"/>
	<path class="st0" d="M2306.5,565.1c2.2,0.9,3.8-2.4,2.1-3.3c-6.5-3.3-16.4-1.5-21,5.7C2295.3,562.2,2300.3,562.5,2306.5,565.1z"/>
	<path class="st0" d="M2296.5,1671.4c0-1.4-1.2-2.6-2.6-2.6c-1.5,0-2.6,1.2-2.6,2.6c0,1.5,1.2,2.6,2.6,2.6
		C2295.3,1674,2296.5,1672.9,2296.5,1671.4z"/>
	<path class="st0" d="M2259.4,1761c0,1.4,1.2,2.6,2.6,2.6c1.5,0,2.6-1.2,2.6-2.6c0-1.5-1.2-2.6-2.6-2.6
		C2260.5,1758.4,2259.4,1759.5,2259.4,1761z"/>
	<path class="st0" d="M2322.7,1729.5c-1.4,0-2.6,1.2-2.6,2.6c0,1.4,1.2,2.6,2.6,2.6c1.5,0,2.6-1.2,2.6-2.6
		C2325.3,1730.7,2324.1,1729.5,2322.7,1729.5z"/>
	<path class="st0" d="M2293.8,1758.4c-1.5,0-2.6,1.2-2.6,2.6c0,1.4,1.2,2.6,2.6,2.6c1.5,0,2.6-1.2,2.6-2.6
		C2296.5,1759.5,2295.3,1758.4,2293.8,1758.4z"/>
	<path class="st0" d="M2322.7,1702.9c1.5,0,2.6-1.2,2.6-2.6c0-1.5-1.2-2.6-2.6-2.6c-1.4,0-2.6,1.2-2.6,2.6
		C2320.1,1701.7,2321.2,1702.9,2322.7,1702.9z"/>
	<path class="st0" d="M2262,1674c1.5,0,2.6-1.2,2.6-2.6c0-1.4-1.2-2.6-2.6-2.6c-1.4,0-2.6,1.2-2.6,2.6
		C2259.4,1672.9,2260.5,1674,2262,1674z"/>
	<path class="st0" d="M2233.1,1729.5c-1.5,0-2.6,1.2-2.6,2.6c0,1.4,1.2,2.6,2.6,2.6c1.4,0,2.6-1.2,2.6-2.6
		C2235.7,1730.7,2234.6,1729.5,2233.1,1729.5z"/>
	<path class="st0" d="M2230.5,1700.3c0,1.4,1.2,2.6,2.6,2.6c1.4,0,2.6-1.2,2.6-2.6c0-1.5-1.2-2.6-2.6-2.6
		C2231.7,1697.7,2230.5,1698.8,2230.5,1700.3z"/>
	<path class="st0" d="M2291.8,1705c1.5,0,2.7-1.2,2.7-2.7c0-1.5-1.2-2.7-2.7-2.7c-1.5,0-2.7,1.2-2.7,2.7
		C2289.1,1703.8,2290.3,1705,2291.8,1705z"/>
	<path class="st0" d="M2291.8,1732.8c1.5,0,2.7-1.2,2.7-2.7c0-1.5-1.2-2.7-2.7-2.7c-1.5,0-2.7,1.2-2.7,2.7
		C2289.1,1731.6,2290.3,1732.8,2291.8,1732.8z"/>
	<path class="st0" d="M2264,1705c1.5,0,2.7-1.2,2.7-2.7c0-1.5-1.2-2.7-2.7-2.7c-1.5,0-2.7,1.2-2.7,2.7
		C2261.3,1703.8,2262.5,1705,2264,1705z"/>
	<path class="st0" d="M2264,1732.8c1.5,0,2.7-1.2,2.7-2.7c0-1.5-1.2-2.7-2.7-2.7c-1.5,0-2.7,1.2-2.7,2.7
		C2261.3,1731.6,2262.5,1732.8,2264,1732.8z"/>
	<path class="st0" d="M2272,1723.8h11.7c1.1,0,1.8-0.7,1.8-1.7v-11.8c0-1.1-0.6-1.7-1.8-1.7H2272c-1.1,0-1.7,0.7-1.7,1.7v11.8
		C2270.3,1723.2,2270.9,1723.8,2272,1723.8z"/>
	<path class="st0" d="M2309.3,3536.6c-18.3,0-33.3,14.9-33.3,33.3c0,8.4,3.2,16.1,8.3,21.9v-16.4c0-1.5,1.2-2.8,2.8-2.8h2.8v-8.3
		c0-10.7,8.7-19.4,19.4-19.4c10.7,0,19.4,8.7,19.4,19.4v8.3h2.8c1.5,0,2.8,1.3,2.8,2.8v16.4c5.2-5.9,8.3-13.5,8.3-21.9
		C2342.6,3551.5,2327.6,3536.6,2309.3,3536.6z"/>
	<path class="st0" d="M2309.3,3550.4c-7.6,0-13.9,6.2-13.9,13.9v8.3h27.7v-8.3C2323.2,3556.6,2316.9,3550.4,2309.3,3550.4z"/>
	<path class="st0" d="M2289.9,3596.8c5.5,4,12.2,6.3,19.4,6.3s13.9-2.4,19.4-6.3v-18.6h-38.8V3596.8z M2306.5,3586.5
		c0-1.5,1.3-2.8,2.8-2.8c1.5,0,2.8,1.2,2.8,2.8v8.3c0,1.5-1.3,2.8-2.8,2.8c-1.5,0-2.8-1.2-2.8-2.8V3586.5z"/>
	<path class="st0" d="M2313.1,3515.8V3477l31.9-31.9v-133.7l-51.9-51.9v-131.8c19.2-10.2,32.3-30.3,32.3-53.6c0-19-8.8-36-22.5-47.1
		v-166l-35.3-35.3v-285.2l43.1-60v-83.9c21.5-12.1,36.1-35.2,36.1-61.7c0-38.2-30.3-69.4-68.2-70.8V1945l14.8-14.8v-78.4l-65.9-65.9
		v-21.8c12.7,13.3,30.5,21.6,50.4,21.6c38.4,0,69.5-31.2,69.5-69.6c0-38.4-31.1-69.6-69.5-69.6c-17,0-32.6,6.1-44.7,16.3v-350
		l27.8-27.8l-2.4-2.4l-28.8,28.8V1666c-3.6,3.5-6.9,7.3-9.7,11.5v-134.4h-3.4V1683c-5.4,9.9-8.4,21.2-8.4,33.2c0,12,3,23.3,8.4,33.2
		v30.6l7.4,7.4v30l40.1,40.1v407.7c-33.5,5.6-59.1,34.7-59.1,69.8c0,39.1,31.7,70.8,70.8,70.8c11.3,0,21.9-2.6,31.4-7.3v80.7
		l-43.1,60v287.9l35.3,35.3v162.1c-2.1-1.4-4.2-2.8-6.4-3.9v-151.3c0-0.9-0.7-1.6-1.6-1.6c-0.9,0-1.6,0.7-1.6,1.6v149.8
		c-7.6-3.5-16.1-5.4-25-5.4c-33.5,0-60.6,27.1-60.6,60.6c0,33.5,27.1,60.6,60.6,60.6c8.9,0,17.4-1.9,25-5.4v131.6l51.9,51.9v131.1
		l-31.9,31.9v40c-0.2,0-0.3,0-0.5,0c-29.9,0-54.2,24.3-54.2,54.2c0,29.9,24.3,54.2,54.2,54.2c29.9,0,54.2-24.2,54.2-54.2
		C2363.5,3541.2,2341.2,3517.7,2313.1,3515.8z M2233.1,1737.4c-2.9,0-5.3-2.4-5.3-5.3c0-2.9,2.4-5.3,5.3-5.3c2.4,0,4.5,1.6,5.2,3.9
		h6.3l6.6-6h3.8v2.7h-2.8l-6.5,6h-7.4C2237.7,1735.8,2235.5,1737.4,2233.1,1737.4z M2237.5,1716.2c0-2.2,1.7-4,3.9-4
		c1.7,0,3.2,1.1,3.7,2.6h9.8v2.7h-9.8c-0.5,1.5-2,2.6-3.7,2.6C2239.2,1720.2,2237.5,1718.4,2237.5,1716.2z M2249.6,1750.1
		c-1.6,1.6-4.1,1.6-5.6,0c-1.5-1.6-1.5-4.1,0-5.6c1.2-1.2,3-1.5,4.5-0.8l7.7-7.7c0.5,0.8,1.1,1.4,1.9,1.9l-7.7,7.6
		C2251.1,1747.1,2250.8,1748.9,2249.6,1750.1z M2257.7,1731.8v-31.2c0-2.9,1.7-4.6,4.6-4.6h31.2c2.9,0,4.6,1.7,4.6,4.6v31.2
		c0,2.9-1.7,4.6-4.6,4.6h-31.2C2259.4,1736.4,2257.7,1734.7,2257.7,1731.8z M2269.3,1742.9l-6,6.6v6.4c2.3,0.6,4,2.7,4,5.2
		c0,2.9-2.4,5.3-5.3,5.3c-2.9,0-5.3-2.4-5.3-5.3c0-2.4,1.6-4.5,4-5.2v-7.4l6-6.5v-2.8h2.7V1742.9z M2277.9,1756.6c-2.2,0-4-1.8-4-4
		c0-1.7,1.1-3.2,2.6-3.7v-9.8h2.7v9.8c1.5,0.6,2.6,2,2.6,3.7C2281.9,1754.8,2280.1,1756.6,2277.9,1756.6z M2293.8,1766.3
		c-2.9,0-5.3-2.4-5.3-5.3c0-2.4,1.7-4.5,4-5.2v-6.4l-6-6.6v-3.8h2.7v2.8l6,6.5v7.4c2.3,0.6,4,2.7,4,5.2
		C2299.2,1763.9,2296.8,1766.3,2293.8,1766.3z M2311.8,1750.1c-1.5,1.6-4.1,1.6-5.6,0c-1.2-1.2-1.5-3-0.8-4.5l-7.7-7.6
		c0.8-0.5,1.4-1.1,1.9-1.9l7.7,7.6c1.5-0.7,3.3-0.4,4.5,0.8C2313.3,1746,2313.3,1748.6,2311.8,1750.1z M2322.7,1737.4
		c-2.4,0-4.5-1.6-5.1-4h-7.4l-6.6-6h-2.8v-2.7h3.9l6.5,6h6.4c0.6-2.3,2.7-3.9,5.1-3.9c2.9,0,5.3,2.4,5.3,5.3
		C2328,1735.1,2325.6,1737.4,2322.7,1737.4z M2300.8,1717.5v-2.7h9.8c0.5-1.5,2-2.6,3.7-2.6c2.2,0,4,1.8,4,4c0,2.2-1.8,4-4,4
		c-1.7,0-3.2-1.1-3.7-2.6H2300.8z M2322.7,1695c2.9,0,5.3,2.4,5.3,5.3c0,2.9-2.4,5.3-5.3,5.3c-2.4,0-4.5-1.6-5.1-4h-6.4l-6.5,6h-3.9
		v-2.7h2.8l6.6-6h7.4C2318.1,1696.6,2320.3,1695,2322.7,1695z M2306.2,1682.3c1.5-1.6,4.1-1.6,5.6,0c1.5,1.6,1.5,4.1,0,5.6
		c-1.2,1.2-3,1.5-4.5,0.8l-7.7,7.7c-0.5-0.8-1.1-1.4-1.9-1.9l7.7-7.6C2304.7,1685.3,2305,1683.5,2306.2,1682.3z M2286.5,1689.5
		l6-6.5v-6.4c-2.3-0.6-4-2.7-4-5.2c0-2.9,2.4-5.3,5.3-5.3c2.9,0,5.3,2.4,5.3,5.3c0,2.4-1.7,4.5-4,5.2v7.4l-6,6.6v2.8h-2.7V1689.5z
		 M2277.9,1675.8c2.2,0,3.9,1.8,3.9,4c0,1.7-1.1,3.2-2.6,3.7v9.8h-2.7v-9.8c-1.5-0.6-2.6-2-2.6-3.7
		C2273.9,1677.6,2275.7,1675.8,2277.9,1675.8z M2262,1666.1c2.9,0,5.3,2.4,5.3,5.3c0,2.4-1.6,4.5-4,5.2v6.4l6,6.5v3.8h-2.7v-2.8
		l-6-6.6v-7.4c-2.3-0.6-4-2.7-4-5.2C2256.6,1668.5,2259,1666.1,2262,1666.1z M2244,1682.3c1.5-1.6,4.1-1.6,5.6,0
		c1.2,1.2,1.5,3,0.8,4.5l7.7,7.6c-0.8,0.5-1.4,1.1-1.9,1.9l-7.7-7.7c-1.5,0.7-3.3,0.4-4.5-0.8
		C2242.5,1686.4,2242.5,1683.9,2244,1682.3z M2238.3,1698.9h7.4l6.5,6h2.8v2.7h-3.8l-6.6-6h-6.3c-0.6,2.3-2.7,4-5.2,4
		c-2.9,0-5.3-2.4-5.3-5.3c0-2.9,2.4-5.3,5.3-5.3C2235.5,1695,2237.7,1696.6,2238.3,1698.9z M2220.1,1778.5v-23.6
		c1.3,1.9,2.6,3.7,4.1,5.5v22.2L2220.1,1778.5z M2227.5,1815.9v-25.2l62.5,62.5v75.6l-14.8,14.8v320.6c-2.5,0-5.1,0.2-7.5,0.5V1856
		L2227.5,1815.9z M2276,2272.6c13.9,0,25.2,10.9,25.2,24.4c0,5.1-2,9-4.1,12.6v0c0,0-0.4,0.8-18.5,32.5c-0.5,0.9-1.5,1.5-2.6,1.5
		c-1,0-2-0.6-2.5-1.5l-19-33.3c-2.2-3.8-3.6-7.3-3.6-11.8C2250.8,2283.5,2262.1,2272.6,2276,2272.6z M2219.7,2336.3
		c0-20.1,10.6-37.7,26.4-47.7c-0.2,0.6-0.3,1.1-0.4,1.7c-0.5,2.1-0.8,4.3-0.8,6.5c0,2.2,0.2,4.4,0.8,6.6c0.2,1,0.6,1.9,0.9,2.9
		c0.1,0.2,1.2,2.5,1.1,2.6c-1.2,1.1-2.6,1.9-3.7,2.4l-1.1,0.5c-2.2,1-3.9,1.8-5.3,3.4c-2.1,2.6-5,5.5-8.4,5.5c0,0-0.1,0-0.2,0
		c-0.3,0-0.6-0.1-1-0.1c-0.4,1.3-0.8,2.6-1.1,4c6.2,0.7,9.9,3.7,10,8.2c0,0.1,0,0.2,0,0.3c-0.2,2.4-0.2,4.6,0.1,6.7
		c0.2,1.7,1.5,2.9,3.6,4.7c2.4,2,5.3,4.6,5.6,8.7c0.2,2.2-0.5,4.1-1.1,5.7c-0.3,0.8-0.5,1.5-0.7,2.1l0,0.2c-0.3,1.3-0.5,2.2-0.3,3.1
		c0.4,2.1,0.6,5.9-1.8,8.4c-0.2,0.2-0.3,0.3-0.5,0.5c4.1,3.8,8.7,6.8,13.9,9.1c2.3-1.5,9.9-5.8,17.9-4.3c4.7,0.8,8.6,3.5,11.7,7.7
		c23.3-4.4,41-24.9,41-49.5c0-2.6-0.2-5.2-0.6-7.7c-0.2-0.7-0.6-1.7-1.2-2c-1.1-0.6-3.5,0.2-5.1,0.7c-2.1,0.7-4.8,1.6-6.4-0.7
		c-0.5-0.7-2-1.4-3.4-1.4c-0.2,0-0.3,0.1-0.5,0.2c0,0.1-0.2,0.3-0.1,0.5c0,0.1,0.2,0.5,0.4,0.8c0.7,1.5,1.7,3.5,0.7,5.5
		c-0.8,1.6-2.4,2.6-4.5,2.9c-1.6,0.2-3.6,0-5.2-0.8c0.2,0.8,0.6,1.6,1.1,2.2c0.8,0.8,2,1.3,3.4,1.8c0.4,0.2,0.9,0.3,1.3,0.5
		c1.7,0.6,2.3,1.7,2.6,2.5c0.6,1.9-0.4,3.5-0.9,4.5c-0.2,0.3-0.4,0.6-0.6,1c-0.4,0.7-0.9,1.4-1.3,2.1c-0.6,0.8-1.2,1.6-1.8,2.4
		c-1.2,1.5-2.3,2.9-2.8,4.4c-0.5,1.3-0.6,2.9-0.7,4.5c-0.1,1.5-0.3,3-0.6,4.7c-0.6,2.2-1.9,3.8-2.8,5c-1.9,2.3-4.2,4.2-6.3,5.7
		c-1.9,1.4-3.8,2.1-5.6,2.1c-1.8,0-3.4-0.7-4.7-2c-2-2-3.3-4.8-4.1-8.4c-0.3-1.5-0.3-2.9-0.4-4.2c0-1.4-0.1-2.7-0.4-3.8
		c-0.1-0.3-0.3-0.6-0.5-1c-0.6-1.1-1.3-2.6-1.1-4.6c0.1-1.4-0.1-2.4-0.7-2.9c-1.2-1-3.9-0.9-5-0.7c-0.1,0-0.2,0-0.3,0.1
		c-3.3,0.2-5.8-0.9-8.2-2.1l-0.5-0.2c-5.2-2.4-7.5-7.1-6.8-13.8c0.3-3.4,1.9-6.7,4.2-9.3l3.2,5.6c-0.8,1.3-1.3,2.8-1.5,4.3
		c-0.5,5.3,1.4,6.9,3.4,7.9l0.5,0.2c2,0.9,3.4,1.6,5.1,1.5c0.1,0,0.2,0,0.4-0.1l0.5,1c1.6,2.8,4.5,4.5,7.7,4.5
		c1.1,0,2.2-0.2,3.2-0.6c0.6,1.3,1,3.1,0.7,5.3c0,0.2,0.2,0.8,0.5,1.3c0.3,0.5,0.6,1.2,0.9,1.9c0.6,1.8,0.6,3.7,0.7,5.4
		c0,1.1,0.1,2.2,0.3,3.2c0.5,2.4,1.4,4.3,2.6,5.5c0.6,0.6,2.1-0.4,2.6-0.7c1.8-1.3,3.8-2.8,5.2-4.6c0.8-1.1,1.5-1.9,1.7-2.8
		c0.3-1.1,0.4-2.4,0.5-3.7c0.2-1.9,0.3-4,1.1-6c0.8-2.4,2.4-4.4,3.7-6.1c0.5-0.7,1.1-1.4,1.6-2.1c0.4-0.6,0.7-1.2,1.1-1.8
		c0-0.1,0.1-0.1,0.1-0.2c-1.8-0.7-3.6-1.5-5.2-3.2c-2-2.3-3-5.5-2.7-8.7c0.2-2.1,1.4-3.7,3.1-4.3c1.9-0.7,4.1,0,5.7,1.6
		c0.2,0.1,0.5,0.2,0.8,0.2c-0.3-0.6-0.7-1.4-0.8-2.1c-0.5-2,0-4.1,1.4-5.6c1.3-1.6,3.2-2.4,5.3-2.3c2.1,0.1,4.8,0.9,6.8,2.7
		c0.2-0.1,0.5-0.2,0.8-0.3c1.7-0.6,3.9-1.3,6.2-1.2c-3.2-9.4-9-17.7-16.7-23.7c0-2.8-0.4-5.5-1.2-8.1c15.8,10,26.4,27.6,26.4,47.7
		c0,31-25.2,56.3-56.3,56.3C2244.9,2392.5,2219.7,2367.3,2219.7,2336.3z M2312.8,2348.5c1.4-0.8,3.2-0.3,4,1.1
		c1.6,2.8-0.6,6.7-1.6,8.2c-0.7,1-3.1,4.5-6.1,5c-0.2,0-0.4,0.1-0.5,0.1c-1.4,0-2.7-1-2.9-2.4c-0.3-1.6,0.8-3.2,2.3-3.4
		c0.2-0.1,1.3-0.9,2.3-2.5c0.8-1.2,1.1-2.1,1.2-2.5C2311,2350.7,2311.6,2349.2,2312.8,2348.5z M2235.8,3041.5
		c0.5-0.7,1.8-1.3,2.7-1.3c17-0.1,34-0.1,51,0c2,0,3.6,1.5,3.7,3.3c0.1,1.8-1.6,3.5-3.7,3.5c-2.6,0.1-5.2,0-7.7,0c0,0,0,0,0,0
		c-2.5,0-5.1-0.1-7.7,0.1c-0.7,0-1.7,0.7-2.1,1.4c-1.5,3.1-3.9,4.8-7.4,4.7c-3.3,0-5.8-1.6-7-4.8c-0.5-1.4-1.2-1.5-2.4-1.5
		c-5.5,0-11,0-16.6,0c-1.7,0-3.1-0.6-3.5-2.3C2235,3043.8,2235.2,3042.4,2235.8,3041.5z M2284.9,3064.3c2.4-2.2,4.8-2.4,6.6-0.5
		c1.9,1.9,1.7,4.4-0.7,6.7c-7.3,7-16,10.3-25.5,10.4c-10.6-0.1-19.3-3.5-26.6-10.5c-2.3-2.2-2.5-4.6-0.6-6.6
		c1.8-1.9,4.3-1.7,6.6,0.4C2256.4,3075.1,2273.2,3075.1,2284.9,3064.3z M2247,3054.2c1.7-1.9,4.1-1.9,6.6,0.2
		c7.1,5.9,15.3,5.9,22.4,0c2.4-2,4.9-2.1,6.6-0.1c1.6,1.8,1.2,4.6-1,6.6c-4.8,4.3-10.5,6.5-16.7,6.5c-6.6-0.1-12.2-2.2-16.9-6.5
		C2245.8,3058.8,2245.4,3056,2247,3054.2z M2228.7,3073.6c1.7-1.8,4.4-1.8,6.5,0.2c9.1,8.6,19.9,12.7,32.4,11.9
		c10.5-0.6,19.3-4.8,26.9-12c2.7-2.5,6.4-1.7,7.4,1.7c0.5,1.9-0.3,3.4-1.6,4.7c-9.9,9.3-21.6,14.1-34.4,14.3
		c-14.6-0.1-26.4-4.9-36.5-14.3C2227.3,3078.1,2227,3075.4,2228.7,3073.6z M2264.8,3108c-16.7-0.5-31.2-6.3-43.5-17.4
		c-0.6-0.5-1.2-1.1-1.8-1.7c-1.7-2-1.5-4.5,0.2-6.2c1.6-1.5,4-1.3,5.9,0.2c4,3.1,7.8,6.6,12.1,9.1c21.7,12.2,47.7,8.7,65.8-8.5
		c2.9-2.8,6.5-2.2,7.6,1.2c0.6,2-0.2,3.5-1.6,4.9c-8.6,8.4-18.7,14-30.5,16.6C2274.4,3106.9,2269.5,3107.3,2264.8,3108z
		 M2309.3,3608.6c-21.4,0-38.8-17.4-38.8-38.8c0-21.4,17.4-38.8,38.8-38.8c21.4,0,38.8,17.4,38.8,38.8
		C2348.1,3591.2,2330.7,3608.6,2309.3,3608.6z"/>
	<path class="st0" d="M2276,2300.7c2.5,0,4.5-2,4.5-4.4c0-2.4-2-4.4-4.5-4.4c-2.4,0-4.4,2-4.4,4.4
		C2271.5,2298.7,2273.5,2300.7,2276,2300.7z"/>
	<path class="st0" d="M2233.2,2311.4c2.2-2.6,4.8-3.8,7.3-5l1.1-0.5c1.8-0.9,2.8-1.7,3.2-2.9c0.3-1,0.2-2.4-0.1-3.8
		c-0.1-0.3-0.1-0.7-0.2-1.2c0-0.2-0.1-0.6-0.1-1c-5.5,4.5-10.1,10.1-13.3,16.6C2231.5,2313.2,2232.2,2312.5,2233.2,2311.4z"/>
	<path class="st0" d="M2276,2334.7c5.1-8.8,15.8-27.7,16-28c2.1-3.7,3.3-6.5,3.3-9.7c0-10.2-8.6-18.5-19.3-18.5
		c-10.6,0-19.2,8.3-19.2,18.5c0,3.3,1.1,5.8,2.8,8.9L2276,2334.7z M2276,2285.9c5.7,0,10.4,4.6,10.4,10.4s-4.7,10.4-10.4,10.4
		c-5.7,0-10.3-4.6-10.3-10.4S2270.3,2285.9,2276,2285.9z"/>
	<path class="st0" d="M2236.9,2349c-2.3-2-5.2-4.5-5.7-8.5c-0.3-2.4-0.3-5-0.1-7.6c-0.2-1.5-2.9-2.2-5.1-2.4
		c-0.2,1.9-0.3,3.8-0.3,5.8c0,12.4,4.5,23.8,12,32.6c0.3,0,0.4-0.1,0.5-0.2c0.3-0.3,0.6-1.5,0.3-3.3c-0.4-2,0-3.8,0.3-5.4l0-0.2
		c0.2-1.1,0.6-2,0.9-2.9c0.5-1.2,0.9-2.3,0.8-3.2C2240.3,2352.1,2239,2350.9,2236.9,2349z"/>
	<path class="st0" d="M1823.2,2385.1c4,1,8.1,1.6,12.4,1.6c0.8,0,1.5,0,2.2,0c-1.6-1.5-3.5-2.3-5.6-2.7
		C1829,2383.3,1825.8,2384.1,1823.2,2385.1z"/>
</g>
</svg>
